{
  "accessors": [
    {
      "bufferView": 2,
      "componentType": 5126,
      "count": 5374,
      "max": [
        0.14959613978862762,
        0.11897940933704376,
        0.14744260907173157
      ],
      "min": [
        -0.14959613978862762,
        -0.13174426555633545,
        -0.12000001966953278
      ],
      "type": "VEC3"
    },
    {
      "bufferView": 2,
      "byteOffset": 64488,
      "componentType": 5126,
      "count": 5374,
      "max": [
        1.0,
        1.0,
        1.0
      ],
      "min": [
        -1.0,
        -1.0,
        -1.0
      ],
      "type": "VEC3"
    },
    {
      "bufferView": 1,
      "componentType": 5126,
      "count": 5374,
      "max": [
        0.669310450553894,
        0.6625379920005798
      ],
      "min": [
        0.0036735795438289642,
        0.015548903495073318
      ],
      "type": "VEC2"
    },
    {
      "bufferView": 0,
      "componentType": 5125,
      "count": 25830,
      "type": "SCALAR"
    },
    {
      "bufferView": 2,
      "byteOffset": 128976,
      "componentType": 5126,
      "count": 7028,
      "max": [
        0.11000000685453415,
        0.1692289561033249,
        0.15000000596046448
      ],
      "min": [
        -0.11000000685453415,
        -0.14521974325180054,
        -0.14058320224285126
      ],
      "type": "VEC3"
    },
    {
      "bufferView": 2,
      "byteOffset": 213312,
      "componentType": 5126,
      "count": 7028,
      "max": [
        1.0,
        1.0,
        1.0
      ],
      "min": [
        -1.0,
        -1.0,
        -1.0
      ],
      "type": "VEC3"
    },
    {
      "bufferView": 1,
      "byteOffset": 42992,
      "componentType": 5126,
      "count": 7028,
      "max": [
        0.99831223487854,
        0.99787837266922
      ],
      "min": [
        0.014177374541759491,
        0.003480488434433937
      ],
      "type": "VEC2"
    },
    {
      "bufferView": 0,
      "byteOffset": 103320,
      "componentType": 5125,
      "count": 30210,
      "type": "SCALAR"
    },
    {
      "bufferView": 2,
      "byteOffset": 297648,
      "componentType": 5126,
      "count": 3961,
      "max": [
        0.15486444532871246,
        0.1535872519016266,
        0.06000002846121788
      ],
      "min": [
        -0.15486444532871246,
        -0.010000007227063179,
        -0.0599999874830246
      ],
      "type": "VEC3"
    },
    {
      "bufferView": 2,
      "byteOffset": 345180,
      "componentType": 5126,
      "count": 3961,
      "max": [
        1.0,
        1.0,
        1.0
      ],
      "min": [
        -1.0,
        -1.0,
        -1.0
      ],
      "type": "VEC3"
    },
    {
      "bufferView": 1,
      "byteOffset": 99216,
      "componentType": 5126,
      "count": 3961,
      "max": [
        0.5745247602462769,
        0.992942214012146
      ],
      "min": [
        0.280598908662796,
        0.6533554792404175
      ],
      "type": "VEC2"
    },
    {
      "bufferView": 0,
      "byteOffset": 224160,
      "componentType": 5125,
      "count": 15744,
      "type": "SCALAR"
    },
    {
      "bufferView": 2,
      "byteOffset": 392712,
      "componentType": 5126,
      "count": 30,
      "max": [
        0.06136591359972954,
        -0.08580213040113449,
        0.019696354866027832
      ],
      "min": [
        -0.06136591359972954,
        -0.08580213785171509,
        -0.012669905088841915
      ],
      "type": "VEC3"
    },
    {
      "bufferView": 2,
      "byteOffset": 393072,
      "componentType": 5126,
      "count": 30,
      "max": [
        0.0,
        -1.0,
        0.0
      ],
      "min": [
        0.0,
        -1.0,
        0.0
      ],
      "type": "VEC3"
    },
    {
      "bufferView": 1,
      "byteOffset": 130904,
      "componentType": 5126,
      "count": 30,
      "max": [
        0.6047478318214417,
        0.4821244776248932
      ],
      "min": [
        0.5521636009216309,
        0.4295403063297272
      ],
      "type": "VEC2"
    },
    {
      "bufferView": 0,
      "byteOffset": 287136,
      "componentType": 5125,
      "count": 96,
      "type": "SCALAR"
    },
    {
      "bufferView": 2,
      "byteOffset": 393432,
      "componentType": 5126,
      "count": 2971,
      "max": [
        0.15443949401378632,
        -0.010999994352459908,
        0.14999999105930328
      ],
      "min": [
        -0.15443949401378632,
        -0.1033259704709053,
        -0.040000006556510925
      ],
      "type": "VEC3"
    },
    {
      "bufferView": 2,
      "byteOffset": 429084,
      "componentType": 5126,
      "count": 2971,
      "max": [
        1.0,
        1.0,
        1.0
      ],
      "min": [
        -1.0,
        -1.0,
        -1.0
      ],
      "type": "VEC3"
    },
    {
      "bufferView": 1,
      "byteOffset": 131144,
      "componentType": 5126,
      "count": 2971,
      "max": [
        0.7177152633666992,
        0.9964988231658936
      ],
      "min": [
        0.6024948954582214,
        0.8481467366218567
      ],
      "type": "VEC2"
    },
    {
      "bufferView": 0,
      "byteOffset": 287520,
      "componentType": 5125,
      "count": 13428,
      "type": "SCALAR"
    },
    {
      "bufferView": 2,
      "byteOffset": 464736,
      "componentType": 5126,
      "count": 208,
      "max": [
        0.10000000149011612,
        -0.07499998807907104,
        0.07784122228622437
      ],
      "min": [
        -0.10000000149011612,
        -0.08500001579523087,
        -0.07784125208854675
      ],
      "type": "VEC3"
    },
    {
      "bufferView": 2,
      "byteOffset": 467232,
      "componentType": 5126,
      "count": 208,
      "max": [
        1.0,
        1.0,
        1.0
      ],
      "min": [
        -1.0,
        -1.0,
        -1.0
      ],
      "type": "VEC3"
    },
    {
      "bufferView": 1,
      "byteOffset": 154912,
      "componentType": 5126,
      "count": 208,
      "max": [
        0.716883659362793,
        0.7172754406929016
      ],
      "min": [
        0.5058638453483582,
        0.4977002739906311
      ],
      "type": "VEC2"
    },
    {
      "bufferView": 0,
      "byteOffset": 341232,
      "componentType": 5125,
      "count": 588,
      "type": "SCALAR"
    },
    {
      "bufferView": 2,
      "byteOffset": 469728,
      "componentType": 5126,
      "count": 8,
      "max": [
        0.07320743054151535,
        0.10854753106832504,
        0.05437597259879112
      ],
      "min": [
        -0.07320743054151535,
        0.10854579508304596,
        -0.05146365240216255
      ],
      "type": "VEC3"
    },
    {
      "bufferView": 2,
      "byteOffset": 469824,
      "componentType": 5126,
      "count": 8,
      "max": [
        0.0,
        1.0,
        1.6431229596491903e-05
      ],
      "min": [
        0.0,
        1.0,
        1.6431229596491903e-05
      ],
      "type": "VEC3"
    },
    {
      "bufferView": 1,
      "byteOffset": 156576,
      "componentType": 5126,
      "count": 8,
      "max": [
        0.6063783168792725,
        0.42365479469299316
      ],
      "min": [
        0.5530232787132263,
        0.39697471261024475
      ],
      "type": "VEC2"
    },
    {
      "bufferView": 0,
      "byteOffset": 343584,
      "componentType": 5125,
      "count": 12,
      "type": "SCALAR"
    },
    {
      "bufferView": 2,
      "byteOffset": 469920,
      "componentType": 5126,
      "count": 976,
      "max": [
        0.10199999809265137,
        -0.0896454006433487,
        0.07987246662378311
      ],
      "min": [
        -0.10199999809265137,
        -0.15000000596046448,
        -0.0798724964261055
      ],
      "type": "VEC3"
    },
    {
      "bufferView": 2,
      "byteOffset": 481632,
      "componentType": 5126,
      "count": 976,
      "max": [
        1.0,
        1.0,
        1.0
      ],
      "min": [
        -1.0,
        -1.0,
        -1.0
      ],
      "type": "VEC3"
    },
    {
      "bufferView": 1,
      "byteOffset": 156640,
      "componentType": 5126,
      "count": 976,
      "max": [
        0.6962864398956299,
        0.8456512689590454
      ],
      "min": [
        0.5323840379714966,
        0.7208348512649536
      ],
      "type": "VEC2"
    },
    {
      "bufferView": 0,
      "byteOffset": 343632,
      "componentType": 5125,
      "count": 4656,
      "type": "SCALAR"
    },
    {
      "bufferView": 3,
      "componentType": 5126,
      "count": 160,
      "max": [
        3.3333332538604736
      ],
      "min": [
        0.0
      ],
      "type": "SCALAR"
    },
    {
      "bufferView": 4,
      "componentType": 5126,
      "count": 160,
      "max": [
        0.0,
        1.9963126182556152,
        0.0
      ],
      "min": [
        0.0,
        0.0,
        0.0
      ],
      "type": "VEC3"
    }
  ],
  "animations": [
    {
      "channels": [
        {
          "sampler": 0,
          "target": {
            "node": 4,
            "path": "translation"
          }
        }
      ],
      "name": "sphere body|sphere bodyAction",
      "samplers": [
        {
          "input": 32,
          "interpolation": "LINEAR",
          "output": 33
        }
      ]
    }
  ],
  "asset": {
    "extras": {
      "author": "mikeramos (https://sketchfab.com/mikeramos)",
      "license": "CC-BY-4.0 (http://creativecommons.org/licenses/by/4.0/)",
      "source": "https://sketchfab.com/3d-models/360-sphere-robot-a0bd28b7133648848427a5c27975611b",
      "title": "360 Sphere Robot"
    },
    "generator": "Sketchfab-12.68.0",
    "version": "2.0"
  },
  "bufferViews": [
    {
      "buffer": 0,
      "byteLength": 362256,
      "name": "floatBufferViews",
      "target": 34963
    },
    {
      "buffer": 0,
      "byteLength": 164448,
      "byteOffset": 362256,
      "byteStride": 8,
      "name": "floatBufferViews",
      "target": 34962
    },
    {
      "buffer": 0,
      "byteLength": 493344,
      "byteOffset": 526704,
      "byteStride": 12,
      "name": "floatBufferViews",
      "target": 34962
    },
    {
      "buffer": 0,
      "byteLength": 640,
      "byteOffset": 1020048,
      "name": "floatBufferViews"
    },
    {
      "buffer": 0,
      "byteLength": 1920,
      "byteOffset": 1020688,
      "byteStride": 12,
      "name": "floatBufferViews"
    }
  ],
  "buffers": [
    {
      "byteLength": 1022608,
      "uri": "scene.bin"
    }
  ],
  "materials": [
    {
      "doubleSided": true,
      "name": "glossy_paint_white",
      "pbrMetallicRoughness": {
        "baseColorFactor": [
          0.8,
          0.752652,
          0.673218,
          1.0
        ],
        "metallicFactor": 0.0,
        "roughnessFactor": 0.06859195349883565
      }
    },
    {
      "doubleSided": true,
      "name": "black_matte",
      "pbrMetallicRoughness": {
        "baseColorFactor": [
          0.0144438,
          0.0144438,
          0.0144438,
          1.0
        ],
        "metallicFactor": 0.0,
        "roughnessFactor": 0.5793264992186977
      }
    },
    {
      "doubleSided": true,
      "name": "metal",
      "pbrMetallicRoughness": {
        "baseColorFactor": [
          0.4341536362,
          0.3967552307,
          0.3712376805,
          1.0
        ],
        "roughnessFactor": 0.2145161094
      }
    },
    {
      "doubleSided": true,
      "emissiveFactor": [
        0.015544559452924347,
        0.6080700473569667,
        0.9022800986427694
      ],
      "name": "eyes_light",
      "pbrMetallicRoughness": {
        "baseColorFactor": [
          0.0,
          0.0,
          0.0,
          1.0
        ],
        "metallicFactor": 0.0,
        "roughnessFactor": 0.8211145618000169
      }
    },
    {
      "alphaMode": "BLEND",
      "doubleSided": true,
      "name": "dark_glass",
      "pbrMetallicRoughness": {
        "baseColorFactor": [
          0.0428619,
          0.0428619,
          0.0428619,
          0.5671661528920344
        ],
        "metallicFactor": 0.0,
        "roughnessFactor": 0.01332108201667107
      }
    },
    {
      "doubleSided": true,
      "name": "black_matter_blender",
      "pbrMetallicRoughness": {
        "baseColorFactor": [
          0.00994723,
          0.00994723,
          0.00994723,
          1.0
        ],
        "metallicFactor": 0.0,
        "roughnessFactor": 0.026030741355513805
      }
    },
    {
      "doubleSided": true,
      "emissiveFactor": [
        0.026561052158765502,
        0.9563207219141614,
        1.0
      ],
      "name": "thruster_light",
      "pbrMetallicRoughness": {
        "baseColorFactor": [
          0.8,
          0.8,
          0.8,
          1.0
        ],
        "metallicFactor": 0.0,
        "roughnessFactor": 0.0
      }
    },
    {
      "alphaMode": "BLEND",
      "doubleSided": true,
      "name": "blender_glass",
      "pbrMetallicRoughness": {
        "baseColorFactor": [
          0.008959033215757944,
          0.008959033215757944,
          0.008959033215757944,
          0.08683247298883072
        ],
        "metallicFactor": 0.0,
        "roughnessFactor": 0.056431607172172264
      }
    }
  ],
  "meshes": [
    {
      "name": "sphere body_glossy paint white_0",
      "primitives": [
        {
          "attributes": {
            "NORMAL": 1,
            "POSITION": 0,
            "TEXCOORD_0": 2
          },
          "indices": 3,
          "material": 0,
          "mode": 4
        }
      ]
    },
    {
      "name": "sphere body_black matte_0",
      "primitives": [
        {
          "attributes": {
            "NORMAL": 5,
            "POSITION": 4,
            "TEXCOORD_0": 6
          },
          "indices": 7,
          "material": 1,
          "mode": 4
        }
      ]
    },
    {
      "name": "sphere body_metal_0",
      "primitives": [
        {
          "attributes": {
            "NORMAL": 9,
            "POSITION": 8,
            "TEXCOORD_0": 10
          },
          "indices": 11,
          "material": 2,
          "mode": 4
        }
      ]
    },
    {
      "name": "sphere body_eyes light_0",
      "primitives": [
        {
          "attributes": {
            "NORMAL": 13,
            "POSITION": 12,
            "TEXCOORD_0": 14
          },
          "indices": 15,
          "material": 3,
          "mode": 4
        }
      ]
    },
    {
      "name": "sphere body_dark glass_0",
      "primitives": [
        {
          "attributes": {
            "NORMAL": 17,
            "POSITION": 16,
            "TEXCOORD_0": 18
          },
          "indices": 19,
          "material": 4,
          "mode": 4
        }
      ]
    },
    {
      "name": "sphere body_black matter blender_0",
      "primitives": [
        {
          "attributes": {
            "NORMAL": 21,
            "POSITION": 20,
            "TEXCOORD_0": 22
          },
          "indices": 23,
          "material": 5,
          "mode": 4
        }
      ]
    },
    {
      "name": "sphere body_thruster light_0",
      "primitives": [
        {
          "attributes": {
            "NORMAL": 25,
            "POSITION": 24,
            "TEXCOORD_0": 26
          },
          "indices": 27,
          "material": 6,
          "mode": 4
        }
      ]
    },
    {
      "name": "sphere body_blender glass_0",
      "primitives": [
        {
          "attributes": {
            "NORMAL": 29,
            "POSITION": 28,
            "TEXCOORD_0": 30
          },
          "indices": 31,
          "material": 7,
          "mode": 4
        }
      ]
    }
  ],
  "nodes": [
    {
      "children": [
        1
      ],
      "matrix": [
        0.017419012263417244,
        0.0,
        0.0,
        0.0,
        0.0,
        3.867797696214757e-18,
        -0.017419012263417244,
        0.0,
        0.0,
        0.017419012263417244,
        3.867797696214757e-18,
        0.0,
        0.0,
        0.0,
        0.0,
        1.0
      ],
      "name": "Sketchfab_model"
    },
    {
      "children": [
        2
      ],
      "matrix": [
        1.0,
        0.0,
        0.0,
        0.0,
        0.0,
        0.0,
        1.0,
        0.0,
        0.0,
        -1.0,
        0.0,
        0.0,
        0.0,
        0.0,
        0.0,
        1.0
      ],
      "name": "8cfcbf279e5145b29fef01b31cc1d658.fbx"
    },
    {
      "children": [
        3
      ],
      "name": "Object_2"
    },
    {
      "children": [
        4
      ],
      "name": "RootNode"
    },
    {
      "children": [
        5,
        6,
        7,
        8,
        9,
        10,
        11,
        12
      ],
      "name": "sphere body",
      "rotation": [
        -0.7071068286895752,
        0.0,
        0.0,
        0.7071067094802856
      ],
      "scale": [
        100.0,
        100.0,
        100.0
      ]
    },
    {
      "mesh": 0,
      "name": "sphere body_glossy paint white_0"
    },
    {
      "mesh": 1,
      "name": "sphere body_black matte_0"
    },
    {
      "mesh": 2,
      "name": "sphere body_metal_0"
    },
    {
      "mesh": 3,
      "name": "sphere body_eyes light_0"
    },
    {
      "mesh": 4,
      "name": "sphere body_dark glass_0"
    },
    {
      "mesh": 5,
      "name": "sphere body_black matter blender_0"
    },
    {
      "mesh": 6,
      "name": "sphere body_thruster light_0"
    },
    {
      "mesh": 7,
      "name": "sphere body_blender glass_0"
    }
  ],
  "scene": 0,
  "scenes": [
    {
      "name": "Sketchfab_Scene",
      "nodes": [
        0
      ]
    }
  ]
}
